<?xml version="1.0" encoding="utf-8"?>
<svg xmlns="http://www.w3.org/2000/svg" viewBox="0 0 1024 512"><path d="M0 0v512h1024V0H0zm200.2 228v-23.8c0-6.5-4.5-10-10-10s-10.1 3.5-10.1 10V228c0 3.9-2.3 5.9-5.6 5.9h-.1-.1c-3.2 0-5.6-2-5.6-5.9v-23.8c0-6.5-4.5-10-10-10s-10.1 3.5-10.1 10V228c0 3.9-2.3 5.9-5.6 5.9-3.2 0-5.6-2-5.6-5.9v-23.8c0-12.9 8.9-20.8 21.3-20.8 6.5 0 12 2.2 15.8 6.2 3.8-3.9 9.3-6.2 15.8-6.2 12.4 0 21.2 7.8 21.2 20.8V228c0 3.9-2.3 5.9-5.6 5.9s-5.7-2-5.7-5.9zm50.5-34.7l-36.2 65.6c-1.9 3.4-4.9 4.1-7.7 2.5-2.8-1.6-3.9-4.4-2-7.9l36.2-65.6c1.9-3.4 4.9-4 7.7-2.5 2.8 1.6 3.9 4.5 2 7.9zM754 272c0 46.1-31.7 74.1-75.8 74.1-44.2 0-75.6-28-75.6-74.1v-38.9l-37 37-37.1-37.1v39c0 46.1-31.7 74.1-75.8 74.1-44.2 0-75.6-28-75.6-74.1v-1.2h-68.4v51.7c0 14-8.3 21.2-19.9 21.2-11.5 0-19.9-7.1-19.9-21.2V187c0-13.9 8.3-21 19.9-21 11.5 0 19.9 7.1 19.9 21v46.9H377V187c0-13.9 8.3-21 19.9-21 11.7 0 20 7.1 20 21.1V272c0 23.3 16.2 35.8 35.8 35.8s36.1-12.5 36.1-35.8v-84.9c0-14 8.3-21.1 19.9-21.1 6.3 0 11.6 2.1 15.2 6.3l41.8 41.6 41.5-41.5c2.5-3 5.9-5 10-5.9l1-.2.9-.1.9-.1.9-.1 1.8-.1c11.5 0 19.9 7.1 19.9 21.1v85c0 23.3 16.2 35.8 35.8 35.8 19.6 0 36.1-12.5 36.1-35.8v-84.9c0-14 8.3-21.1 19.9-21.1 11.5 0 19.9 7.1 19.9 21.1V272zm132.3 23.5c-3.6 30.5-36.6 53.6-75.7 50-20.9-2-38.6-11.3-49.8-24.5-3.8-3.8-5.8-9.1-5.2-14.6 1.1-10.3 10.9-17.5 21.9-16.5 11.8 1.1 16.9 18.1 37.3 19.5 15.3 1 30-5.7 31.4-17.7 1.6-13.9-14.4-19.6-28.9-22.3-31.7-6.3-59.2-24.3-55.4-57 3.3-27.8 34.2-49.5 69.7-46.1 16.7 1.6 31.1 8 41.3 17.5l-.1.1c4 3.9 6.3 9.4 5.7 15.3-1.1 10.3-9.5 17.1-20.2 15.9-11.5-1.3-16.1-11.4-30.9-12.8-12.2-1.1-24.3 4.3-25.4 13.9-1.4 12 12.4 15.8 23.8 17.9 35.4 7.2 64.4 27.8 60.5 61.4z"/></svg>