<?xml version="1.0" encoding="utf-8"?>
<svg xmlns="http://www.w3.org/2000/svg" viewBox="0 0 1024 512"><path d="M211.4 228v-23.8c0-12.9-8.8-20.8-21.2-20.8-6.5 0-12 2.2-15.8 6.2-3.8-3.9-9.2-6.2-15.8-6.2-12.4 0-21.3 7.8-21.3 20.8V228c0 3.9 2.3 5.9 5.6 5.9 3.2 0 5.6-2 5.6-5.9v-23.8c0-6.5 4.6-10 10.1-10s10 3.5 10 10V228c0 3.9 2.3 5.9 5.6 5.9h.2c3.2 0 5.6-2 5.6-5.9v-23.8c0-6.5 4.6-10 10.1-10s10 3.5 10 10V228c0 3.9 2.3 5.9 5.6 5.9s5.7-2 5.7-5.9m39.3-34.7c1.9-3.4.8-6.3-2-7.9-2.8-1.6-5.8-1-7.7 2.5l-36.2 65.6c-1.9 3.4-.8 6.3 2 7.9s5.8 1 7.7-2.5l36.2-65.6zM754 272v-84.9c0-14-8.3-21.1-19.9-21.1-11.5 0-19.9 7.1-19.9 21.1V272c0 23.3-16.4 35.8-36.1 35.8-19.6 0-35.8-12.5-35.8-35.8v-84.9c0-14-8.3-21.1-19.9-21.1l-1.8.1-.9.1-.9.1-.9.1-1 .2c-4 .9-7.5 2.9-10 5.9L565.4 214l-41.8-41.6c-3.6-4.2-8.9-6.3-15.2-6.3-11.5 0-19.9 7.1-19.9 21.1V272c0 23.3-16.4 35.8-36.1 35.8-19.6 0-35.8-12.5-35.8-35.8v-84.9c0-14-8.3-21.1-20-21.1-11.5 0-19.9 7.1-19.9 21v46.9h-68.3V187c0-13.9-8.3-21-19.9-21-11.5 0-19.9 7.1-19.9 21v135.5c0 14 8.3 21.2 19.9 21.2 11.5 0 19.9-7.1 19.9-21.2v-51.7h68.4v1.2c0 46.1 31.4 74.1 75.6 74.1 44.2 0 75.8-28 75.8-74.1v-39l37.1 37.1 37-37V272c0 46.1 31.4 74.1 75.6 74.1 44.4 0 76.1-28 76.1-74.1m124.6-72.9c.6-5.9-1.6-11.4-5.7-15.3l.1-.1c-10.2-9.5-24.6-15.9-41.3-17.5-35.4-3.3-66.4 18.3-69.7 46.1-3.9 32.7 23.7 50.8 55.4 57 14.5 2.7 30.5 8.4 28.9 22.3-1.4 12-16.1 18.8-31.4 17.7-20.4-1.4-25.5-18.5-37.3-19.5-11.1-1-20.9 6.2-21.9 16.5-.6 5.5 1.5 10.7 5.2 14.6 11.2 13.2 28.9 22.5 49.8 24.5 39.1 3.7 72.1-19.4 75.7-50 3.9-33.5-25.1-54.2-60.4-61.4-11.5-2.2-25.2-6-23.8-17.9 1.1-9.5 13.2-15 25.4-13.9 14.8 1.3 19.4 11.4 30.9 12.8 10.5 1.2 18.9-5.6 20.1-15.9"/></svg>