<?xml version="1.0" encoding="utf-8"?>
<svg xmlns="http://www.w3.org/2000/svg" viewBox="0 0 1024 1024"><path d="M643.3 552.5V367c0-100.8-68.6-161.9-165.1-161.9-50.8 0-93.6 17.3-123.1 48-29.4-30.7-72.1-48-122.8-48-96.5 0-165.6 61.1-165.6 161.9v185.5c0 30.5 18.2 46.1 43.4 46.1s43.4-15.5 43.4-46.1V367c0-50.9 35.9-78.3 78.8-78.3s78.3 27.3 78.3 78.3v185.5c0 30.5 18.2 46.1 43.4 46.1.4 0 .7-.2 1-.2s.7.2 1 .2c25.2 0 43.4-15.5 43.4-46.1V367c0-50.9 35.9-78.3 78.8-78.3s78.3 27.3 78.3 78.3v185.5c0 30.5 18.2 46.1 43.4 46.1 25.2-.1 43.4-15.6 43.4-46.1M950 282c14.7-26.6 6.3-49-15.7-61.2-22-12.2-45.4-7.5-60.2 19.1l-282 511.2c-14.9 26.8-6.5 49.3 15.5 61.5 22 12.2 45.5 7.4 60.3-19.4L950 282z"/></svg>