<?xml version="1.0" encoding="utf-8"?>
<svg xmlns="http://www.w3.org/2000/svg" viewBox="0 0 1024 1024"><path d="M0 0v1024h1024V0H0zm578.8 346c3.5 1.9 4.8 5.5 2.5 9.7l-44.6 80.9c-2.3 4.2-6.1 5-9.5 3.1s-4.8-5.5-2.5-9.7l44.6-80.9c2.3-4.3 6.1-5.1 9.5-3.1zm-137.3 23.1c0-15.9 10.9-25.6 26.2-25.6 8 0 14.8 2.7 19.4 7.6 4.7-4.9 11.5-7.6 19.5-7.6 15.3 0 26.1 9.7 26.1 25.6v29.4c0 4.8-2.9 7.3-6.9 7.3s-6.9-2.5-6.9-7.3v-29.4c0-8.1-5.6-12.4-12.4-12.4-6.8 0-12.5 4.3-12.5 12.4v29.4c0 4.8-2.9 7.3-6.9 7.3h-.4c-4 0-6.9-2.5-6.9-7.3v-29.4c0-8.1-5.6-12.4-12.4-12.4-6.8 0-12.5 4.3-12.5 12.4v29.4c0 4.8-2.9 7.3-6.9 7.3s-6.9-2.5-6.9-7.3v-29.4zm287.8 220c0 56.9-39 91.4-93.5 91.4s-93.2-34.5-93.2-91.4v-47.9L497 586.8l-45.7-45.7v48c0 56.9-39 91.4-93.5 91.4s-93.2-34.5-93.2-91.4v-1.5h-84.4v63.8c0 17.3-10.3 26.1-24.5 26.1s-24.5-8.8-24.5-26.1V484.3c0-17.2 10.3-25.9 24.5-25.9s24.5 8.7 24.5 25.9v57.9h84.2v-57.9c0-17.2 10.3-25.9 24.5-25.9 14.4 0 24.7 8.8 24.7 26v104.7c0 28.8 20 44.2 44.2 44.2 24.2 0 44.5-15.4 44.5-44.2V484.4c0-17.2 10.3-26 24.5-26 7.7 0 14.3 2.6 18.7 7.8l51.5 51.3 51.1-51.1c3.1-3.7 7.3-6.1 12.3-7.3l1.2-.2 1.1-.2 1.1-.1 1.1-.1 2.2-.1c14.2 0 24.5 8.8 24.5 26v104.8c0 28.8 20 44.2 44.2 44.2 24.2 0 44.5-15.4 44.5-44.2V484.4c0-17.2 10.3-26 24.5-26s24.5 8.8 24.5 26v104.7zm163.1 29c-4.4 37.7-45.1 66.2-93.3 61.6-25.8-2.4-47.6-13.9-61.4-30.2-4.6-4.7-7.2-11.2-6.5-18 1.3-12.7 13.4-21.5 27.1-20.3 14.6 1.3 20.9 22.4 46 24.1 18.9 1.3 37-7.1 38.8-21.9 2-17.2-17.7-24.1-35.6-27.5-39.1-7.8-73-30-68.3-70.3 4-34.3 42.2-61 85.9-56.9 20.6 1.9 38.3 9.9 50.9 21.6l-.1.1c5 4.8 7.8 11.6 7 18.9-1.4 12.7-11.8 21.1-24.9 19.6-14.2-1.6-19.8-14.1-38.2-15.7-15.1-1.4-30 5.4-31.3 17.1-1.7 14.8 15.2 19.4 29.4 22.1 43.6 8.8 79.4 34.3 74.5 75.7z"/></svg>