<?xml version="1.0" encoding="utf-8"?>
<svg xmlns="http://www.w3.org/2000/svg" viewBox="0 0 1024 1024"><path d="M729.3 589.1V484.4c0-17.2-10.3-26-24.5-26s-24.5 8.8-24.5 26v104.7c0 28.8-20.3 44.2-44.5 44.2s-44.2-15.4-44.2-44.2V484.3c0-17.2-10.3-26-24.5-26l-2.2.1-1.1.1-1.1.1-1.1.2-1.2.2c-5 1.1-9.2 3.5-12.3 7.3L497 517.4l-51.5-51.3c-4.4-5.2-11-7.8-18.7-7.8-14.2 0-24.5 8.8-24.5 26V589c0 28.8-20.3 44.2-44.5 44.2s-44.2-15.4-44.2-44.2V484.4c0-17.2-10.3-26-24.7-26-14.2 0-24.5 8.7-24.5 25.9v57.9h-84.2v-57.9c0-17.2-10.3-25.9-24.5-25.9s-24.5 8.7-24.5 25.9v167.1c0 17.3 10.3 26.1 24.5 26.1s24.5-8.8 24.5-26.1v-63.8h84.4v1.5c0 56.9 38.7 91.4 93.2 91.4s93.5-34.5 93.5-91.4v-48l45.7 45.7 45.6-45.6v47.9c0 56.9 38.7 91.4 93.2 91.4 54.4 0 93.5-34.5 93.5-91.4m153.6-89.8c.8-7.3-2-14.1-7-18.9l.1-.1c-12.6-11.7-30.3-19.7-50.9-21.6-43.7-4.1-81.9 22.6-85.9 56.9-4.8 40.4 29.2 62.6 68.3 70.3 17.9 3.4 37.6 10.3 35.6 27.5-1.7 14.8-19.9 23.2-38.8 21.9-25.1-1.7-31.4-22.8-46-24.1-13.6-1.2-25.7 7.7-27.1 20.3-.7 6.8 1.8 13.2 6.5 18 13.8 16.3 35.6 27.7 61.4 30.2 48.2 4.5 88.9-24 93.3-61.6 4.9-41.4-31-66.8-74.5-75.7-14.2-2.7-31.1-7.3-29.4-22.1 1.4-11.8 16.3-18.5 31.3-17.1 18.3 1.6 24 14.1 38.2 15.7 13.2 1.5 23.5-6.9 24.9-19.6M532.8 398.5v-29.4c0-15.9-10.9-25.6-26.1-25.6-8 0-14.8 2.7-19.5 7.6-4.7-4.9-11.4-7.6-19.4-7.6-15.3 0-26.2 9.7-26.2 25.6v29.4c0 4.8 2.9 7.3 6.9 7.3s6.9-2.5 6.9-7.3v-29.4c0-8.1 5.7-12.4 12.5-12.4s12.4 4.3 12.4 12.4v29.4c0 4.8 2.9 7.3 6.9 7.3h.4c4 0 6.9-2.5 6.9-7.3v-29.4c0-8.1 5.7-12.4 12.5-12.4s12.4 4.3 12.4 12.4v29.4c0 4.8 2.9 7.3 6.9 7.3s6.5-2.5 6.5-7.3m48.5-42.8c2.3-4.2 1-7.7-2.5-9.7-3.5-1.9-7.2-1.2-9.5 3l-44.6 80.9c-2.4 4.2-1 7.8 2.5 9.7 3.5 1.9 7.2 1.2 9.5-3.1l44.6-80.8z"/></svg>